<svg width="256" height="256" xmlns="http://www.w3.org/2000/svg">

 <metadata id="imagebot_16"/>
 <g id="imagebot_2" label="Layer 1">
  <g label="Layer 1" id="imagebot_7" transform="matrix(1.2311 0 0 1.2311 66.2546 -1090.74)">
   <path fill="#ffffff" stroke="#000000" stroke-width="4.0614" stroke-linecap="round" stroke-linejoin="round" stroke-miterlimit="4" id="imagebot_14" d="M89.47069,1065.87146C93.19752,1071.9978 88.9869,1075.9209 83.31074,1078.81812C75.28057,1082.91687 55.41288,1080.91992 48.61081,1076.80444C42.36809,1073.02747 39.59801,1067.45496 42.57048,1062.62061"/>
   <path fill="#ffffff" stroke="#000000" stroke-width="4.0614" stroke-linecap="round" stroke-linejoin="round" stroke-miterlimit="4" id="imagebot_13" d="M-3.21285,1024.85095C-8.81964,1035.49817 13.64474,1040.07385 20.08908,1040.8877C27.83183,1041.8656 39.28877,1063.0813 52.71817,1067.06274C61.81961,1069.76111 82.04433,1070.90918 89.21213,1065.63171C101.48532,1056.59521 107.69215,1044.94592 110.49758,1030.54419C111.49204,1025.43909 112.20463,1019.55774 111.45495,1014.84235C108.26513,994.77881 96.50423,994.79401 91.94095,994.08191C89.21373,985.3573 79.24241,979.0376 65.87326,981.69116C65.77035,970.94531 66.09879,964.32611 66.98549,954.15509C68.46872,937.14166 38.91352,942.11475 39.51437,969.42004C39.81601,983.12799 45.76482,1006.18524 37.9032,1024.26843C22.26179,1011.07275 6.95069,1005.55066 -3.21285,1024.85095z"/>
   <path fill="#000000" stroke-width="5.78096" d="M63.83766,981.04376C63.86846,991.29724 65.05248,999.26886 71.06351,1007.14917C68.55442,1000.57397 67.6943,987.48322 67.88695,979.21057L63.83766,981.04376z" id="imagebot_12"/>
   <path fill="#000000" stroke-width="5.78096" d="M93.471,992.23059L89.6619,993.71686C91.59089,999.29364 93.71276,1005.55908 96.77564,1008.8999C95.6952,1006.2948 94.69851,996.92157 93.471,992.23059z" id="imagebot_11"/>
   <path fill="none" stroke="#000000" stroke-width="4.0614" stroke-linecap="round" stroke-linejoin="round" stroke-miterlimit="4" id="imagebot_10" d="M83.38622,1059.00049C88.32477,1049.74976 88.52897,1046.96985 90.21205,1042.16833"/>
   <path fill="none" stroke="#000000" stroke-width="4.0614" stroke-linecap="round" stroke-linejoin="round" stroke-miterlimit="4" id="imagebot_9" d="M73.98136,1058.80151C76.75654,1047.53955 77.02935,1041.86255 78.19495,1034.19275"/>
   <path fill="none" stroke="#000000" stroke-width="4.0614" stroke-linecap="round" stroke-linejoin="round" stroke-miterlimit="4" id="imagebot_8" d="M62.76263,1058.26538C63.61782,1050.3302 63.28362,1046.50806 63.31816,1041.41077"/>
  </g>
  <title>Layer 1</title>
 </g>
</svg>